Coordinates
version=1
nRows=11
nColumns=40
inDegrees=yes

Units are S.I. units (second, meters, Newtons, ...)
If the header above contains a line with 'inDegrees', this indicates whether rotational values are in degrees (yes) or radians (no).

endheader
time	pelvis_tilt	pelvis_list	pelvis_rotation	pelvis_tx	pelvis_ty	pelvis_tz	hip_flexion_r	hip_adduction_r	hip_rotation_r	knee_angle_r	knee_angle_r_beta	ankle_angle_r	subtalar_angle_r	mtp_angle_r	hip_flexion_l	hip_adduction_l	hip_rotation_l	knee_angle_l	knee_angle_l_beta	ankle_angle_l	subtalar_angle_l	mtp_angle_l	lumbar_extension	lumbar_bending	lumbar_rotation	arm_flex_r	arm_add_r	arm_rot_r	elbow_flex_r	pro_sup_r	wrist_flex_r	wrist_dev_r	arm_flex_l	arm_add_l	arm_rot_l	elbow_flex_l	pro_sup_l	wrist_flex_l	wrist_dev_l
      2.07000000	    -53.00156497	     89.68300662	    -35.44586707	     -0.26429016	      0.12049748	      1.00223809	     29.44737724	     -1.46670608	    -10.53920719	      2.12318415	      0.03705655	     -1.76440748	     13.45137814	      0.00000000	    -16.86963537	      1.43337429	      7.39671788	     10.14852168	      0.17712512	     13.72497472	      5.15262766	      0.00000000	    -16.01447557	      0.21445368	     -3.14643726	    -23.29838241	    -11.59538781	      6.16160619	     41.27374941	     77.76679162	      0.00000000	      0.00000000	      1.59419048	    -17.00793118	     -2.83018243	     74.94864675	     68.52061739	      0.00000000	      0.00000000
      2.08000000	    -52.52797528	     89.68699598	    -35.19982820	     -0.26433720	      0.10536610	      0.99935166	     29.76456909	     -1.82529062	    -11.82104986	      2.65222949	      0.04629014	     -1.20404836	     14.05531040	      0.00000000	    -17.35516359	      1.07737403	      7.40459244	     10.96866658	      0.19143935	     14.39550670	      6.18967709	      0.00000000	    -15.91823690	      0.51112570	     -3.96958295	    -22.91318464	    -11.69619409	      6.95079055	     40.68415763	     78.95105384	      0.00000000	      0.00000000	      1.05215669	    -17.02455242	     -3.13137896	     74.77468737	     68.17121284	      0.00000000	      0.00000000
      2.09000000	    -52.35607683	     89.67259599	    -35.06755852	     -0.26477284	      0.08982287	      0.99648193	     30.13965674	     -1.97525099	    -12.18063006	      3.59575054	      0.06275769	     -1.20384655	     13.68675789	      0.00000000	    -18.00266809	      0.87689053	      7.42487008	     11.54473323	      0.20149361	     14.39970743	      6.30513064	      0.00000000	    -15.78889744	      0.76165890	     -4.10041954	    -22.87319307	    -11.63150619	      6.91834896	     40.48547702	     79.08188139	      0.00000000	      0.00000000	      0.70545212	    -16.74719858	     -3.33182948	     74.21552416	     68.10158810	      0.00000000	      0.00000000
      2.10000000	    -52.01934919	     89.67783374	    -34.84019193	     -0.26485027	      0.07408983	      0.99366779	     30.55238416	     -2.31255397	    -12.51583407	      5.10246668	      0.08905484	     -0.75668633	     13.01695221	      0.00000000	    -18.36789205	      0.60102500	      7.59124477	     12.62646438	      0.22037338	     14.65184699	      6.71997833	      0.00000000	    -15.63088740	      1.05812321	     -4.63103931	    -22.73303420	    -11.60751073	      6.95536881	     40.29242296	     79.47389342	      0.00000000	      0.00000000	      0.09651665	    -16.62124183	     -3.33312853	     73.88076651	     67.96398812	      0.00000000	      0.00000000
      2.11000000	    -51.82837844	     89.65876304	    -34.69403551	     -0.26532545	      0.05820867	      0.99107438	     30.94044645	     -2.53726246	    -12.79913185	      6.82680406	      0.11915021	     -0.77090742	     12.49546712	      0.00000000	    -18.81157290	      0.34728832	      7.50780634	     13.54257155	      0.23636246	     14.36399461	      6.91271179	      0.00000000	    -15.47918430	      1.32361516	     -4.88589527	    -22.61828687	    -11.56301382	      6.89529162	     40.13960170	     79.61483618	      0.00000000	      0.00000000	     -0.41847277	    -16.39290543	     -3.48791403	     73.13947186	     67.88019126	      0.00000000	      0.00000000
      2.12000000	    -51.54103552	     89.67043359	    -34.47467972	     -0.26566276	      0.04184906	      0.98848572	     31.35864142	     -2.87330580	    -12.89093887	      9.00525888	      0.15717142	     -0.39115646	     11.73847096	      0.00000000	    -19.07750638	      0.04124412	      7.52193140	     14.79940371	      0.25829832	     14.42117047	      7.39383005	      0.00000000	    -15.24875658	      1.59276375	     -5.37862150	    -22.53146581	    -11.49576871	      6.76074878	     40.05326109	     79.89144765	      0.00000000	      0.00000000	     -1.07098508	    -16.26989988	     -3.58521680	     72.37099216	     67.91096152	      0.00000000	      0.00000000
      2.13000000	    -51.34379303	     89.65434167	    -34.32638672	     -0.26624753	      0.02567531	      0.98644948	     31.72393276	     -3.08705187	    -12.86692306	     11.05529225	      0.19295125	     -1.48591195	     10.95032400	      0.00000000	    -19.29562309	     -0.26501318	      7.24713286	     16.06944362	      0.28046470	     14.04448517	      7.85030208	      0.00000000	    -15.06838142	      1.85979925	     -5.70470290	    -22.36480993	    -11.43231061	      6.53311136	     39.98090688	     80.10873924	      0.00000000	      0.00000000	     -1.67008274	    -16.03030093	     -3.68867194	     71.35190077	     67.95781898	      0.00000000	      0.00000000
      2.14000000	    -51.13033148	     89.65384675	    -34.16555944	     -0.26712291	      0.00909520	      0.98442648	     31.90348758	     -3.14151917	    -12.51800041	     12.65673567	      0.22090171	     -2.89421613	      9.39361191	      0.00000000	    -19.42299316	     -0.64495440	      6.84002565	     17.49229072	      0.30529807	     13.66092451	      8.72262014	      0.00000000	    -14.83339448	      2.08705811	     -6.07678897	    -22.25325194	    -11.29437686	      6.16398528	     39.98647929	     80.41454271	      0.00000000	      0.00000000	     -2.36580848	    -15.84577601	     -3.73469557	     70.29976848	     68.12612362	      0.00000000	      0.00000000
      2.15000000	    -50.98870345	     89.63801845	    -34.03570991	     -0.26812827	     -0.00755915	      0.98280494	     31.87842581	     -3.07349099	    -12.17786248	     13.69309503	      0.23898959	     -5.15240908	      8.07403172	      0.00000000	    -19.49457559	     -1.03462254	      6.22284578	     18.96803797	      0.33105472	     12.97752690	      9.54019289	      0.00000000	    -14.61375529	      2.32186895	     -6.30923918	    -22.12661695	    -11.16420397	      5.75466214	     39.98196369	     80.64879754	      0.00000000	      0.00000000	     -3.05603227	    -15.61686092	     -3.72286782	     69.04049951	     68.22940449	      0.00000000	      0.00000000
      2.16000000	    -50.90056831	     89.61670007	    -33.91727021	     -0.26923200	     -0.02429179	      0.98156589	     31.72178959	     -2.97514618	    -11.87309315	     14.52823126	      0.25356547	     -7.57201748	      7.01125549	      0.00000000	    -19.47240230	     -1.40439954	      5.60710451	     20.54559046	      0.35858820	     11.98969837	     10.12854887	      0.00000000	    -14.39619412	      2.55008517	     -6.49617903	    -21.92531759	    -11.05946983	      5.42686912	     39.95534139	     80.72134504	      0.00000000	      0.00000000	     -3.64367623	    -15.35662593	     -3.72186239	     67.47626207	     68.45944509	      0.00000000	      0.00000000
      2.17000000	    -50.87919754	     89.60211794	    -33.80663746	     -0.27057359	     -0.04126104	      0.98076527	     31.60254662	     -2.82983943	    -11.25302475	     15.63889548	      0.27295022	     -9.40185942	      5.60545680	      0.00000000	    -19.35493410	     -1.81284004	      4.75272809	     22.19205939	      0.38732450	     10.65899420	     10.91221256	      0.00000000	    -14.15786106	      2.74439635	     -6.58674479	    -21.73219845	    -10.96004538	      5.13040840	     39.94523377	     80.72020769	      0.00000000	      0.00000000	     -4.24942531	    -15.06809902	     -3.66379084	     65.76068348	     68.83381122	      0.00000000	      0.00000000
